<svg width="20" height="20" viewBox="0 0 20 20" fill="none" xmlns="http://www.w3.org/2000/svg">
<g opacity="0.8">
<path d="M13.3838 17.955C13.6181 17.7206 13.7498 17.4027 13.7498 17.0713C13.7498 16.7398 13.6181 16.4219 13.3838 16.1875L7.19627 10L13.3838 3.81252C13.6115 3.57676 13.7375 3.26101 13.7346 2.93326C13.7318 2.60552 13.6003 2.292 13.3685 2.06024C13.1368 1.82848 12.8233 1.69702 12.4955 1.69418C12.1678 1.69133 11.852 1.81732 11.6163 2.04502L4.54502 9.11626C4.31068 9.35067 4.17904 9.66855 4.17904 10C4.17904 10.3315 4.31068 10.6493 4.54502 10.8838L11.6163 17.955C11.8507 18.1893 12.1686 18.321 12.5 18.321C12.8315 18.321 13.1494 18.1893 13.3838 17.955Z" fill="white"/>
</g>
</svg>
