<svg width="26" height="25" viewBox="0 0 26 25" fill="none" xmlns="http://www.w3.org/2000/svg">
<path d="M2.59295 3.75C2.59295 3.0625 3.1637 2.5 3.86129 2.5H10.203C10.9006 2.5 11.4713 1.9375 11.4713 1.25C11.4713 0.5625 10.9006 0 10.203 0H2.59295C1.19778 0 0.0562744 1.125 0.0562744 2.5V10C0.0562744 10.6875 0.627026 11.25 1.32461 11.25C2.0222 11.25 2.59295 10.6875 2.59295 10V3.75ZM9.70832 14.3625L5.95404 18.9875C5.62428 19.4 5.91599 20 6.4487 20H19.0813C19.1991 20 19.3146 19.9677 19.4147 19.9067C19.5149 19.8456 19.5959 19.7583 19.6486 19.6545C19.7012 19.5507 19.7235 19.4345 19.7129 19.3189C19.7024 19.2033 19.6593 19.0929 19.5887 19L17.052 15.6625C16.7983 15.325 16.291 15.325 16.0373 15.6625L13.9699 18.3875L10.6976 14.3625C10.6382 14.2895 10.5629 14.2306 10.4773 14.1901C10.3917 14.1496 10.2979 14.1286 10.203 14.1286C10.108 14.1286 10.0143 14.1496 9.92866 14.1901C9.84304 14.2306 9.76775 14.2895 9.70832 14.3625ZM19.0813 8.125C19.0813 7.0875 18.2316 6.25 17.1788 6.25C16.1261 6.25 15.2763 7.0875 15.2763 8.125C15.2763 9.1625 16.1261 10 17.1788 10C18.2316 10 19.0813 9.1625 19.0813 8.125ZM22.8863 0H15.2763C14.5787 0 14.008 0.5625 14.008 1.25C14.008 1.9375 14.5787 2.5 15.2763 2.5H21.618C22.3156 2.5 22.8863 3.0625 22.8863 3.75V10C22.8863 10.6875 23.4571 11.25 24.1547 11.25C24.8523 11.25 25.423 10.6875 25.423 10V2.5C25.423 1.125 24.2815 0 22.8863 0ZM22.8863 21.25C22.8863 21.9375 22.3156 22.5 21.618 22.5H15.2763C14.5787 22.5 14.008 23.0625 14.008 23.75C14.008 24.4375 14.5787 25 15.2763 25H22.8863C24.2815 25 25.423 23.875 25.423 22.5V15C25.423 14.3125 24.8523 13.75 24.1547 13.75C23.4571 13.75 22.8863 14.3125 22.8863 15V21.25ZM1.32461 13.75C0.627026 13.75 0.0562744 14.3125 0.0562744 15V22.5C0.0562744 23.875 1.19778 25 2.59295 25H10.203C10.9006 25 11.4713 24.4375 11.4713 23.75C11.4713 23.0625 10.9006 22.5 10.203 22.5H3.86129C3.1637 22.5 2.59295 21.9375 2.59295 21.25V15C2.59295 14.3125 2.0222 13.75 1.32461 13.75Z" fill="white"/>
</svg>
