<svg width="26" height="25" viewBox="0 0 26 25" fill="none" xmlns="http://www.w3.org/2000/svg">
<path d="M21.4765 6.57895V10.5132C21.4765 10.5132 18.8196 10.5263 18.8063 10.5132V6.57895H14.801C14.801 6.57895 14.8144 3.96053 14.801 3.94737H18.8063V0H21.4765V3.94737H25.4817V6.57895H21.4765ZM17.4712 11.8421V7.89474H13.4659V3.94737H2.78517C1.31657 3.94737 0.11499 5.13158 0.11499 6.57895V22.3684C0.11499 23.8158 1.31657 25 2.78517 25H18.8063C20.2749 25 21.4765 23.8158 21.4765 22.3684V11.8421H17.4712ZM2.78517 22.3684L6.79045 17.1053L9.46063 21.0526L13.4659 15.7895L18.8063 22.3684H2.78517Z" fill="white"/>
</svg>
