<svg width="15" height="16" viewBox="0 0 15 16" fill="none" xmlns="http://www.w3.org/2000/svg">
<path opacity="0.5" d="M7.2954 0.192383C7.77074 0.192383 8.15606 0.565483 8.15606 1.02572C8.15606 1.45308 7.82382 1.8053 7.39578 1.85344L7.2954 1.85905H2.99212C2.55075 1.85905 2.18697 2.18075 2.13726 2.5952L2.13147 2.69238V12.6924C2.13147 13.1198 2.46372 13.472 2.89175 13.5201L2.99212 13.5257H6.86507C7.34041 13.5257 7.72573 13.8988 7.72573 14.359C7.72573 14.7864 7.39349 15.1386 6.96545 15.1868L6.86507 15.1924H2.99212C1.61707 15.1924 0.493071 14.1517 0.414539 12.8393L0.410156 12.6924V2.69238C0.410156 1.36099 1.48505 0.272666 2.84041 0.196627L2.99212 0.192383H7.2954ZM12.2072 4.74611L14.6415 7.10313C14.9776 7.42855 14.9776 7.95622 14.6415 8.28163L12.2072 10.6386C11.8711 10.9641 11.3262 10.9641 10.99 10.6386C10.6539 10.3132 10.6539 9.78555 10.99 9.46013L11.9552 8.52572H7.2954C6.82006 8.52572 6.43475 8.15263 6.43475 7.69238C6.43475 7.23213 6.82006 6.85905 7.2954 6.85905H11.9552L10.99 5.92462C10.6539 5.59918 10.6539 5.07154 10.99 4.74611C11.3262 4.42067 11.8711 4.42067 12.2072 4.74611Z" fill="white"/>
</svg>
