<svg width="24" height="24" viewBox="0 0 24 24" fill="none" xmlns="http://www.w3.org/2000/svg">
<path fill-rule="evenodd" clip-rule="evenodd" d="M13.5 12C13.5 11.1716 12.8284 10.5 12 10.5C11.1716 10.5 10.5 11.1716 10.5 12C10.5 12.8284 11.1716 13.5 12 13.5C12.8284 13.5 13.5 12.8284 13.5 12ZM12 9C13.6569 9 15 10.3431 15 12C15 13.6569 13.6569 15 12 15C10.3431 15 9 13.6569 9 12C9 10.3431 10.3431 9 12 9Z" fill="white"/>
<path fill-rule="evenodd" clip-rule="evenodd" d="M21 12C21 11.1716 20.3284 10.5 19.5 10.5C18.6716 10.5 18 11.1716 18 12C18 12.8284 18.6716 13.5 19.5 13.5C20.3284 13.5 21 12.8284 21 12ZM19.5 9C21.1569 9 22.5 10.3431 22.5 12C22.5 13.6569 21.1569 15 19.5 15C17.8431 15 16.5 13.6569 16.5 12C16.5 10.3431 17.8431 9 19.5 9Z" fill="white"/>
<path fill-rule="evenodd" clip-rule="evenodd" d="M6 12C6 11.1716 5.32843 10.5 4.5 10.5C3.67157 10.5 3 11.1716 3 12C3 12.8284 3.67157 13.5 4.5 13.5C5.32843 13.5 6 12.8284 6 12ZM4.5 9C6.15685 9 7.5 10.3431 7.5 12C7.5 13.6569 6.15685 15 4.5 15C2.84315 15 1.5 13.6569 1.5 12C1.5 10.3431 2.84315 9 4.5 9Z" fill="white"/>
</svg>
