<svg width="30" height="30" viewBox="0 0 30 30" fill="none" xmlns="http://www.w3.org/2000/svg">
<g opacity="0.9">
<path fill-rule="evenodd" clip-rule="evenodd" d="M16.875 12.6562C16.875 12.1385 17.2947 11.7188 17.8125 11.7188H21.5625C22.0803 11.7188 22.5 12.1385 22.5 12.6562C22.5 13.174 22.0803 13.5938 21.5625 13.5938H17.8125C17.2947 13.5938 16.875 13.174 16.875 12.6562Z" fill="white"/>
<path fill-rule="evenodd" clip-rule="evenodd" d="M7.5 12.6562C7.5 12.1385 7.91973 11.7188 8.4375 11.7188H12.1875C12.7053 11.7188 13.125 12.1385 13.125 12.6562C13.125 13.174 12.7053 13.5938 12.1875 13.5938H8.4375C7.91973 13.5938 7.5 13.174 7.5 12.6562Z" fill="white"/>
<path fill-rule="evenodd" clip-rule="evenodd" d="M10.3125 9.84375C10.8303 9.84375 11.25 10.2635 11.25 10.7812V14.5312C11.25 15.049 10.8303 15.4688 10.3125 15.4688C9.79473 15.4688 9.375 15.049 9.375 14.5312V10.7812C9.375 10.2635 9.79473 9.84375 10.3125 9.84375Z" fill="white"/>
<path fill-rule="evenodd" clip-rule="evenodd" d="M20.1565 5.58984C22.0213 5.58984 23.8097 6.33063 25.1283 7.64925C26.4469 8.96786 27.1877 10.7563 27.1877 12.6211C27.1877 14.4859 26.4469 16.2743 25.1283 17.5929C23.8103 18.911 22.0227 19.6517 20.1588 19.6523C20.158 19.6523 20.1572 19.6523 20.1565 19.6523L12.9574 19.6856L8.17234 24.9802L7.4768 24.3516L8.14107 25.0131C7.5067 25.6501 6.68544 26.0678 5.79703 26.2053C4.90863 26.3427 3.99953 26.1928 3.2023 25.7774C2.40506 25.362 1.76138 24.7027 1.3651 23.8958C0.968826 23.0889 0.840673 22.1764 0.999331 21.2916L1.00195 21.2776L2.92235 11.4297C3.21233 9.80603 4.06298 8.33555 5.32612 7.27471C6.59118 6.21225 8.18946 5.62832 9.84147 5.625M20.1565 5.58984V6.52734ZM20.1565 7.46484L9.84577 7.5C8.63338 7.50231 7.46039 7.93079 6.53197 8.71051C5.60356 9.49023 4.97884 10.5715 4.76708 11.7653L3.84399 11.6016L4.76416 11.781L2.84376 21.6289C2.75738 22.1185 2.82891 22.6229 3.04811 23.0693C3.26826 23.5176 3.62586 23.8838 4.06877 24.1146C4.51168 24.3454 5.01673 24.4287 5.51029 24.3523C5.99699 24.277 6.44741 24.0503 6.79777 23.7047L11.8438 18.1214C12.0205 17.9258 12.2714 17.8137 12.535 17.8125L20.1522 17.7774L20.1565 17.7773C21.524 17.7773 22.8355 17.2341 23.8025 16.2671C24.7695 15.3001 25.3127 13.9886 25.3127 12.6211C25.3127 11.2536 24.7695 9.94206 23.8025 8.97507C22.8359 8.00845 21.525 7.46525 20.158 7.46484C20.1575 7.46484 20.157 7.46484 20.1565 7.46484Z" fill="white"/>
<path fill-rule="evenodd" clip-rule="evenodd" d="M25.9774 10.6461C26.4857 10.5473 26.9778 10.8793 27.0765 11.3876L28.9984 21.2782L29.0009 21.2916C29.1596 22.1764 29.0314 23.0889 28.6351 23.8958C28.2389 24.7027 27.5952 25.3619 26.798 25.7774C26.0007 26.1928 25.0916 26.3427 24.2032 26.2052C23.3148 26.0678 22.4935 25.6501 21.8592 25.0131L22.5234 24.3516L21.8266 24.9787L16.7641 19.3537C16.4177 18.9689 16.4489 18.3761 16.8338 18.0297C17.2186 17.6833 17.8114 17.7145 18.1578 18.0994L23.2031 23.7053C23.5534 24.0506 24.0035 24.277 24.49 24.3523C24.9835 24.4287 25.4886 24.3454 25.9315 24.1146C26.3744 23.8838 26.732 23.5176 26.9521 23.0693C27.1714 22.6228 27.2429 22.1183 27.1564 21.6286L25.236 11.7452C25.1372 11.237 25.4692 10.7449 25.9774 10.6461Z" fill="white"/>
</g>
</svg>
