<svg width="30" height="30" viewBox="0 0 30 30" fill="none" xmlns="http://www.w3.org/2000/svg">
<path fill-rule="evenodd" clip-rule="evenodd" d="M1.48667 6.64292C1.83831 6.29129 2.31522 6.09375 2.8125 6.09375H17.8125C19.0557 6.09375 20.248 6.58761 21.1271 7.46669C22.0061 8.34576 22.5 9.53805 22.5 10.7812V22.0312C22.5 22.5285 22.3025 23.0054 21.9508 23.3571C21.5992 23.7087 21.1223 23.9062 20.625 23.9062H5.625C4.3818 23.9062 3.18951 23.4124 2.31044 22.5333C1.43136 21.6542 0.9375 20.462 0.9375 19.2188V7.96875C0.9375 7.47147 1.13504 6.99456 1.48667 6.64292ZM2.8125 7.96875V19.2188C2.8125 19.9647 3.10882 20.68 3.63626 21.2075C4.16371 21.7349 4.87908 22.0312 5.625 22.0312H20.625V10.7812C20.625 10.0353 20.3287 9.31996 19.8012 8.79251C19.2738 8.26507 18.5584 7.96875 17.8125 7.96875L2.8125 7.96875Z" fill="white"/>
<path fill-rule="evenodd" clip-rule="evenodd" d="M28.5957 8.56415C28.8848 8.73189 29.0627 9.04081 29.0627 9.375V20.625C29.0627 20.9592 28.8848 21.2681 28.5957 21.4359C28.3067 21.6036 27.9502 21.6048 27.66 21.439L21.0975 17.689C20.648 17.4321 20.4918 16.8594 20.7487 16.4099C21.0056 15.9603 21.5782 15.8041 22.0278 16.061L27.1877 19.0095V10.9905L22.0278 13.939C21.5782 14.1959 21.0056 14.0397 20.7487 13.5901C20.4918 13.1406 20.648 12.5679 21.0975 12.311L27.66 8.56102C27.9502 8.39522 28.3067 8.39641 28.5957 8.56415Z" fill="white"/>
</svg>
