<svg xmlns="http://www.w3.org/2000/svg" xmlns:xlink="http://www.w3.org/1999/xlink" viewBox="0,0,256,256" width="150px" height="150px" fill-rule="nonzero"><g fill="#ffffff" fill-rule="nonzero" stroke="none" stroke-width="1" stroke-linecap="butt" stroke-linejoin="miter" stroke-miterlimit="10" stroke-dasharray="" stroke-dashoffset="0" font-family="none" font-weight="none" font-size="none" text-anchor="none" style="mix-blend-mode: normal"><g transform="scale(5.12,5.12)"><path d="M25,3c-6.6,0 -12,5.4 -12,12v5h-4c-1.7,0 -3,1.3 -3,3v24c0,1.7 1.3,3 3,3h32c1.7,0 3,-1.3 3,-3v-24c0,-1.7 -1.3,-3 -3,-3h-4v-5c0,-6.6 -5.4,-12 -12,-12zM25,5c5.6,0 10,4.4 10,10v5h-20v-5c0,-5.6 4.4,-10 10,-10zM25,30c1.7,0 3,1.3 3,3c0,0.9 -0.4,1.7 -1,2.2v2.8c0,1.1 -0.9,2 -2,2c-1.1,0 -2,-0.9 -2,-2v-2.8c-0.6,-0.5 -1,-1.3 -1,-2.2c0,-1.7 1.3,-3 3,-3z"></path></g></g></svg>