<svg width="118" height="18" viewBox="0 0 118 18" fill="none" xmlns="http://www.w3.org/2000/svg">
<path d="M0.486406 14V11.68H2.32641V2.32H0.486406V-9.53674e-07H6.24641C8.12641 -9.53674e-07 9.55307 0.479999 10.5264 1.44C11.5131 2.38667 12.0064 3.8 12.0064 5.68V8.32C12.0064 10.2 11.5131 11.62 10.5264 12.58C9.55307 13.5267 8.12641 14 6.24641 14H0.486406ZM4.96641 11.6H6.28641C7.35307 11.6 8.13307 11.32 8.62641 10.76C9.11974 10.2 9.36641 9.41333 9.36641 8.4V5.6C9.36641 4.57333 9.11974 3.78667 8.62641 3.24C8.13307 2.68 7.35307 2.4 6.28641 2.4H4.96641V11.6ZM14.2867 14V4.08H16.7667V5.2H17.1267C17.2734 4.8 17.5134 4.50667 17.8467 4.32C18.1934 4.13333 18.5934 4.04 19.0467 4.04H20.2467V6.28H19.0067C18.3667 6.28 17.8401 6.45333 17.4267 6.8C17.0134 7.13333 16.8067 7.65333 16.8067 8.36V14H14.2867ZM25.062 14.28C24.3554 14.28 23.722 14.16 23.162 13.92C22.602 13.6667 22.1554 13.3067 21.822 12.84C21.502 12.36 21.342 11.78 21.342 11.1C21.342 10.42 21.502 9.85333 21.822 9.4C22.1554 8.93333 22.6087 8.58667 23.182 8.36C23.7687 8.12 24.4354 8 25.182 8H27.902V7.44C27.902 6.97333 27.7554 6.59333 27.462 6.3C27.1687 5.99333 26.702 5.84 26.062 5.84C25.4354 5.84 24.9687 5.98667 24.662 6.28C24.3554 6.56 24.1554 6.92667 24.062 7.38L21.742 6.6C21.902 6.09333 22.1554 5.63333 22.502 5.22C22.862 4.79333 23.3354 4.45333 23.922 4.2C24.522 3.93333 25.2487 3.8 26.102 3.8C27.4087 3.8 28.442 4.12667 29.202 4.78C29.962 5.43333 30.342 6.38 30.342 7.62V11.32C30.342 11.72 30.5287 11.92 30.902 11.92H31.702V14H30.022C29.5287 14 29.122 13.88 28.802 13.64C28.482 13.4 28.322 13.08 28.322 12.68V12.66H27.942C27.8887 12.82 27.7687 13.0333 27.582 13.3C27.3954 13.5533 27.102 13.78 26.702 13.98C26.302 14.18 25.7554 14.28 25.062 14.28ZM25.502 12.24C26.2087 12.24 26.782 12.0467 27.222 11.66C27.6754 11.26 27.902 10.7333 27.902 10.08V9.88H25.362C24.8954 9.88 24.5287 9.98 24.262 10.18C23.9954 10.38 23.862 10.66 23.862 11.02C23.862 11.38 24.002 11.6733 24.282 11.9C24.562 12.1267 24.9687 12.24 25.502 12.24ZM32.8692 9.08V8.76C32.8692 7.72 33.0759 6.83333 33.4892 6.1C33.9026 5.35333 34.4492 4.78667 35.1292 4.4C35.8226 4 36.5759 3.8 37.3892 3.8C38.2959 3.8 38.9826 3.96 39.4492 4.28C39.9159 4.6 40.2559 4.93333 40.4692 5.28H40.8292V4.08H43.3092V15.76C43.3092 16.44 43.1092 16.98 42.7092 17.38C42.3092 17.7933 41.7759 18 41.1092 18H34.4692V15.8H40.2292C40.6026 15.8 40.7892 15.6 40.7892 15.2V12.62H40.4292C40.2959 12.8333 40.1092 13.0533 39.8692 13.28C39.6292 13.4933 39.3092 13.6733 38.9092 13.82C38.5092 13.9667 38.0026 14.04 37.3892 14.04C36.5759 14.04 35.8226 13.8467 35.1292 13.46C34.4492 13.06 33.9026 12.4933 33.4892 11.76C33.0759 11.0133 32.8692 10.12 32.8692 9.08ZM38.1092 11.84C38.8826 11.84 39.5292 11.5933 40.0492 11.1C40.5692 10.6067 40.8292 9.91333 40.8292 9.02V8.82C40.8292 7.91333 40.5692 7.22 40.0492 6.74C39.5426 6.24667 38.8959 6 38.1092 6C37.3359 6 36.6892 6.24667 36.1692 6.74C35.6492 7.22 35.3892 7.91333 35.3892 8.82V9.02C35.3892 9.91333 35.6492 10.6067 36.1692 11.1C36.6892 11.5933 37.3359 11.84 38.1092 11.84ZM50.8231 14.28C49.8365 14.28 48.9498 14.08 48.1631 13.68C47.3765 13.28 46.7565 12.7 46.3031 11.94C45.8498 11.18 45.6231 10.2667 45.6231 9.2V8.88C45.6231 7.81333 45.8498 6.9 46.3031 6.14C46.7565 5.38 47.3765 4.8 48.1631 4.4C48.9498 4 49.8365 3.8 50.8231 3.8C51.8098 3.8 52.6965 4 53.4831 4.4C54.2698 4.8 54.8898 5.38 55.3431 6.14C55.7965 6.9 56.0231 7.81333 56.0231 8.88V9.2C56.0231 10.2667 55.7965 11.18 55.3431 11.94C54.8898 12.7 54.2698 13.28 53.4831 13.68C52.6965 14.08 51.8098 14.28 50.8231 14.28ZM50.8231 12.04C51.5965 12.04 52.2365 11.7933 52.7431 11.3C53.2498 10.7933 53.5031 10.0733 53.5031 9.14V8.94C53.5031 8.00667 53.2498 7.29333 52.7431 6.8C52.2498 6.29333 51.6098 6.04 50.8231 6.04C50.0498 6.04 49.4098 6.29333 48.9031 6.8C48.3965 7.29333 48.1431 8.00667 48.1431 8.94V9.14C48.1431 10.0733 48.3965 10.7933 48.9031 11.3C49.4098 11.7933 50.0498 12.04 50.8231 12.04ZM58.3492 14V4.08H60.8292V5.38H61.1892C61.3492 5.03333 61.6492 4.70667 62.0892 4.4C62.5292 4.08 63.1959 3.92 64.0892 3.92C64.8626 3.92 65.5359 4.1 66.1092 4.46C66.6959 4.80667 67.1492 5.29333 67.4692 5.92C67.7892 6.53333 67.9492 7.25333 67.9492 8.08V14H65.4292V8.28C65.4292 7.53333 65.2426 6.97333 64.8692 6.6C64.5092 6.22667 63.9892 6.04 63.3092 6.04C62.5359 6.04 61.9359 6.3 61.5092 6.82C61.0826 7.32667 60.8692 8.04 60.8692 8.96V14H58.3492ZM70.5934 14V-9.53674e-07H76.3534C77.2334 -9.53674e-07 78.0068 0.179999 78.6734 0.539999C79.3534 0.886666 79.8801 1.38 80.2534 2.02C80.6401 2.66 80.8334 3.42 80.8334 4.3V4.58C80.8334 5.44667 80.6334 6.20667 80.2334 6.86C79.8468 7.5 79.3134 8 78.6334 8.36C77.9668 8.70667 77.2068 8.88 76.3534 8.88H73.2334V14H70.5934ZM73.2334 6.48H76.0934C76.7201 6.48 77.2268 6.30667 77.6134 5.96C78.0001 5.61333 78.1934 5.14 78.1934 4.54V4.34C78.1934 3.74 78.0001 3.26667 77.6134 2.92C77.2268 2.57333 76.7201 2.4 76.0934 2.4H73.2334V6.48ZM87.2294 14.28C86.2427 14.28 85.356 14.08 84.5694 13.68C83.7827 13.28 83.1627 12.7 82.7094 11.94C82.256 11.18 82.0294 10.2667 82.0294 9.2V8.88C82.0294 7.81333 82.256 6.9 82.7094 6.14C83.1627 5.38 83.7827 4.8 84.5694 4.4C85.356 4 86.2427 3.8 87.2294 3.8C88.216 3.8 89.1027 4 89.8894 4.4C90.676 4.8 91.296 5.38 91.7494 6.14C92.2027 6.9 92.4294 7.81333 92.4294 8.88V9.2C92.4294 10.2667 92.2027 11.18 91.7494 11.94C91.296 12.7 90.676 13.28 89.8894 13.68C89.1027 14.08 88.216 14.28 87.2294 14.28ZM87.2294 12.04C88.0027 12.04 88.6427 11.7933 89.1494 11.3C89.656 10.7933 89.9094 10.0733 89.9094 9.14V8.94C89.9094 8.00667 89.656 7.29333 89.1494 6.8C88.656 6.29333 88.016 6.04 87.2294 6.04C86.456 6.04 85.816 6.29333 85.3094 6.8C84.8027 7.29333 84.5494 8.00667 84.5494 8.94V9.14C84.5494 10.0733 84.8027 10.7933 85.3094 11.3C85.816 11.7933 86.456 12.04 87.2294 12.04ZM94.7555 14V4.08H97.2355V5.38H97.5955C97.7555 5.03333 98.0555 4.70667 98.4955 4.4C98.9355 4.08 99.6021 3.92 100.495 3.92C101.269 3.92 101.942 4.1 102.515 4.46C103.102 4.80667 103.555 5.29333 103.875 5.92C104.195 6.53333 104.355 7.25333 104.355 8.08V14H101.835V8.28C101.835 7.53333 101.649 6.97333 101.275 6.6C100.915 6.22667 100.395 6.04 99.7155 6.04C98.9421 6.04 98.3421 6.3 97.9155 6.82C97.4888 7.32667 97.2755 8.04 97.2755 8.96V14H94.7555ZM106.6 9.08V8.76C106.6 7.72 106.806 6.83333 107.22 6.1C107.633 5.35333 108.18 4.78667 108.86 4.4C109.553 4 110.306 3.8 111.12 3.8C112.026 3.8 112.713 3.96 113.18 4.28C113.646 4.6 113.986 4.93333 114.2 5.28H114.56V4.08H117.04V15.76C117.04 16.44 116.84 16.98 116.44 17.38C116.04 17.7933 115.506 18 114.84 18H108.2V15.8H113.96C114.333 15.8 114.52 15.6 114.52 15.2V12.62H114.16C114.026 12.8333 113.84 13.0533 113.6 13.28C113.36 13.4933 113.04 13.6733 112.64 13.82C112.24 13.9667 111.733 14.04 111.12 14.04C110.306 14.04 109.553 13.8467 108.86 13.46C108.18 13.06 107.633 12.4933 107.22 11.76C106.806 11.0133 106.6 10.12 106.6 9.08ZM111.84 11.84C112.613 11.84 113.26 11.5933 113.78 11.1C114.3 10.6067 114.56 9.91333 114.56 9.02V8.82C114.56 7.91333 114.3 7.22 113.78 6.74C113.273 6.24667 112.626 6 111.84 6C111.066 6 110.42 6.24667 109.9 6.74C109.38 7.22 109.12 7.91333 109.12 8.82V9.02C109.12 9.91333 109.38 10.6067 109.9 11.1C110.42 11.5933 111.066 11.84 111.84 11.84Z" fill="white"/>
</svg>
