<svg width="178" height="56" viewBox="0 0 178 56" fill="none" xmlns="http://www.w3.org/2000/svg">
<g style="mix-blend-mode:overlay" filter="url(#filter0_f_1_3612)">
<rect x="4" y="4" width="170" height="48" rx="24" fill="url(#paint0_linear_1_3612)" fill-opacity="0.2"/>
</g>
<rect x="17" y="9" width="144" height="40" rx="20" fill="url(#paint1_linear_1_3612)"/>
<rect x="17" y="9" width="144" height="40" rx="20" stroke="url(#paint2_linear_1_3612)" stroke-width="2" style="mix-blend-mode:overlay"/>
<rect x="17" y="9" width="144" height="40" rx="20" stroke="black" stroke-opacity="0.2" stroke-width="2"/>
<path d="M47.7597 26.9335C49.6885 28.1009 49.6885 30.8991 47.7597 32.0665L37.5534 38.244C35.5541 39.4541 33 38.0145 33 35.6775L33 23.3225C33 20.9855 35.5541 19.5459 37.5534 20.756L47.7597 26.9335Z" fill="url(#paint3_linear_1_3612)"/>
<mask id="mask0_1_3612" style="mask-type:alpha" maskUnits="userSpaceOnUse" x="59" y="21" width="84" height="19">
<path d="M64.31 28.81C64.8033 28.81 65.2333 28.75 65.6 28.63C65.9667 28.5033 66.27 28.3267 66.51 28.1C66.7567 27.8667 66.94 27.5867 67.06 27.26C67.18 26.9267 67.24 26.5567 67.24 26.15C67.24 25.7633 67.18 25.4133 67.06 25.1C66.94 24.7867 66.76 24.52 66.52 24.3C66.28 24.08 65.9767 23.9133 65.61 23.8C65.2433 23.68 64.81 23.62 64.31 23.62H62.3V28.81H64.31ZM64.31 21.54C65.2767 21.54 66.1133 21.6533 66.82 21.88C67.5267 22.1067 68.11 22.4233 68.57 22.83C69.03 23.2367 69.37 23.7233 69.59 24.29C69.8167 24.8567 69.93 25.4767 69.93 26.15C69.93 26.85 69.8133 27.4933 69.58 28.08C69.3467 28.66 68.9967 29.16 68.53 29.58C68.0633 30 67.4767 30.3267 66.77 30.56C66.07 30.7933 65.25 30.91 64.31 30.91H62.3V36H59.61V21.54H64.31ZM74.0638 21.14V36H71.5938V21.14H74.0638ZM81.9447 31.62C81.2314 31.6533 80.6314 31.7167 80.1447 31.81C79.658 31.8967 79.268 32.01 78.9747 32.15C78.6814 32.29 78.4714 32.4533 78.3447 32.64C78.218 32.8267 78.1547 33.03 78.1547 33.25C78.1547 33.6833 78.2814 33.9933 78.5347 34.18C78.7947 34.3667 79.1314 34.46 79.5447 34.46C80.0514 34.46 80.488 34.37 80.8547 34.19C81.228 34.0033 81.5914 33.7233 81.9447 33.35V31.62ZM76.2847 27.17C77.4647 26.09 78.8847 25.55 80.5447 25.55C81.1447 25.55 81.6814 25.65 82.1547 25.85C82.628 26.0433 83.028 26.3167 83.3547 26.67C83.6814 27.0167 83.928 27.4333 84.0947 27.92C84.268 28.4067 84.3547 28.94 84.3547 29.52V36H83.2347C83.0014 36 82.8214 35.9667 82.6947 35.9C82.568 35.8267 82.468 35.6833 82.3947 35.47L82.1747 34.73C81.9147 34.9633 81.6614 35.17 81.4147 35.35C81.168 35.5233 80.9114 35.67 80.6447 35.79C80.378 35.91 80.0914 36 79.7847 36.06C79.4847 36.1267 79.1514 36.16 78.7847 36.16C78.3514 36.16 77.9514 36.1033 77.5847 35.99C77.218 35.87 76.9014 35.6933 76.6347 35.46C76.368 35.2267 76.1614 34.9367 76.0147 34.59C75.868 34.2433 75.7947 33.84 75.7947 33.38C75.7947 33.12 75.838 32.8633 75.9247 32.61C76.0114 32.35 76.1514 32.1033 76.3447 31.87C76.5447 31.6367 76.8014 31.4167 77.1147 31.21C77.428 31.0033 77.8114 30.8233 78.2647 30.67C78.7247 30.5167 79.258 30.3933 79.8647 30.3C80.4714 30.2 81.1647 30.14 81.9447 30.12V29.52C81.9447 28.8333 81.798 28.3267 81.5047 28C81.2114 27.6667 80.788 27.5 80.2347 27.5C79.8347 27.5 79.5014 27.5467 79.2347 27.64C78.9747 27.7333 78.7447 27.84 78.5447 27.96C78.3447 28.0733 78.1614 28.1767 77.9947 28.27C77.8347 28.3633 77.6547 28.41 77.4547 28.41C77.2814 28.41 77.1347 28.3667 77.0147 28.28C76.8947 28.1867 76.798 28.08 76.7247 27.96L76.2847 27.17ZM95.708 25.74L90.118 38.82C90.0446 38.9933 89.948 39.1233 89.828 39.21C89.7146 39.3033 89.538 39.35 89.298 39.35H87.458L89.378 35.23L85.228 25.74H87.398C87.5913 25.74 87.7413 25.7867 87.848 25.88C87.9613 25.9733 88.0446 26.08 88.098 26.2L90.278 31.52C90.3513 31.7 90.4113 31.88 90.458 32.06C90.5113 32.24 90.5613 32.4233 90.608 32.61C90.668 32.4233 90.728 32.24 90.788 32.06C90.848 31.8733 90.9146 31.69 90.988 31.51L93.048 26.2C93.1013 26.0667 93.188 25.9567 93.308 25.87C93.4346 25.7833 93.5746 25.74 93.728 25.74H95.708ZM113.87 21.54V36H112.49C112.277 36 112.097 35.9667 111.95 35.9C111.81 35.8267 111.674 35.7067 111.54 35.54L103.99 25.9C104.03 26.34 104.05 26.7467 104.05 27.12V36H101.68V21.54H103.09C103.204 21.54 103.3 21.5467 103.38 21.56C103.467 21.5667 103.54 21.5867 103.6 21.62C103.667 21.6467 103.73 21.69 103.79 21.75C103.85 21.8033 103.917 21.8767 103.99 21.97L111.57 31.65C111.55 31.4167 111.534 31.1867 111.52 30.96C111.507 30.7333 111.5 30.5233 111.5 30.33V21.54H113.87ZM120.928 25.58C121.688 25.58 122.378 25.7033 122.998 25.95C123.625 26.1967 124.158 26.5467 124.598 27C125.045 27.4533 125.388 28.0067 125.628 28.66C125.868 29.3133 125.988 30.0433 125.988 30.85C125.988 31.6633 125.868 32.3967 125.628 33.05C125.388 33.7033 125.045 34.26 124.598 34.72C124.158 35.18 123.625 35.5333 122.998 35.78C122.378 36.0267 121.688 36.15 120.928 36.15C120.161 36.15 119.465 36.0267 118.838 35.78C118.211 35.5333 117.675 35.18 117.228 34.72C116.788 34.26 116.445 33.7033 116.198 33.05C115.958 32.3967 115.838 31.6633 115.838 30.85C115.838 30.0433 115.958 29.3133 116.198 28.66C116.445 28.0067 116.788 27.4533 117.228 27C117.675 26.5467 118.211 26.1967 118.838 25.95C119.465 25.7033 120.161 25.58 120.928 25.58ZM120.928 34.25C121.781 34.25 122.411 33.9633 122.818 33.39C123.231 32.8167 123.438 31.9767 123.438 30.87C123.438 29.7633 123.231 28.92 122.818 28.34C122.411 27.76 121.781 27.47 120.928 27.47C120.061 27.47 119.418 27.7633 118.998 28.35C118.585 28.93 118.378 29.77 118.378 30.87C118.378 31.97 118.585 32.81 118.998 33.39C119.418 33.9633 120.061 34.25 120.928 34.25ZM142.347 25.74L139.087 36H137.107C136.88 36 136.723 35.8533 136.637 35.56L134.797 29.63C134.737 29.43 134.68 29.2333 134.627 29.04C134.58 28.84 134.54 28.64 134.507 28.44C134.467 28.64 134.42 28.8433 134.367 29.05C134.32 29.25 134.267 29.45 134.207 29.65L132.337 35.56C132.257 35.8533 132.08 36 131.807 36H129.907L126.657 25.74H128.627C128.807 25.74 128.96 25.7833 129.087 25.87C129.213 25.9567 129.297 26.0667 129.337 26.2L130.807 31.68C130.88 31.98 130.943 32.2733 130.997 32.56C131.057 32.8467 131.107 33.1333 131.147 33.42C131.22 33.1333 131.297 32.8467 131.377 32.56C131.463 32.2733 131.553 31.98 131.647 31.68L133.347 26.18C133.387 26.0467 133.463 25.9367 133.577 25.85C133.697 25.7633 133.84 25.72 134.007 25.72H135.097C135.27 25.72 135.417 25.7633 135.537 25.85C135.663 25.9367 135.747 26.0467 135.787 26.18L137.437 31.68C137.523 31.98 137.603 32.2767 137.677 32.57C137.757 32.8567 137.833 33.1433 137.907 33.43C137.993 32.8633 138.117 32.28 138.277 31.68L139.787 26.2C139.833 26.0667 139.917 25.9567 140.037 25.87C140.157 25.7833 140.3 25.74 140.467 25.74H142.347Z" fill="black"/>
</mask>
<g mask="url(#mask0_1_3612)">
<rect x="4" y="5" width="162" height="51" fill="url(#paint4_linear_1_3612)"/>
</g>
<defs>
<filter id="filter0_f_1_3612" x="0" y="0" width="178" height="56" filterUnits="userSpaceOnUse" color-interpolation-filters="sRGB">
<feFlood flood-opacity="0" result="BackgroundImageFix"/>
<feBlend mode="normal" in="SourceGraphic" in2="BackgroundImageFix" result="shape"/>
<feGaussianBlur stdDeviation="2" result="effect1_foregroundBlur_1_3612"/>
</filter>
<linearGradient id="paint0_linear_1_3612" x1="4" y1="28" x2="174" y2="28" gradientUnits="userSpaceOnUse">
<stop stop-color="#FA03FF"/>
<stop offset="0.213542" stop-color="#624DE3"/>
<stop offset="0.380208" stop-color="#1510FF"/>
<stop offset="0.510417" stop-color="#624DE3"/>
<stop offset="0.630208" stop-color="#FA03FF"/>
<stop offset="0.848958" stop-color="#624DE3"/>
<stop offset="1" stop-color="#FA03FF"/>
</linearGradient>
<linearGradient id="paint1_linear_1_3612" x1="29" y1="48" x2="153.5" y2="23.5" gradientUnits="userSpaceOnUse">
<stop stop-color="white"/>
<stop offset="1" stop-color="#B3C3FF"/>
</linearGradient>
<linearGradient id="paint2_linear_1_3612" x1="30.425" y1="11.9" x2="46.0331" y2="73.6062" gradientUnits="userSpaceOnUse">
<stop stop-color="#C322FF"/>
<stop offset="0.985902" stop-color="#00BAE1"/>
</linearGradient>
<linearGradient id="paint3_linear_1_3612" x1="35.3222" y1="29.5" x2="69.2847" y2="29.5" gradientUnits="userSpaceOnUse">
<stop stop-color="#D501F8"/>
<stop offset="1" stop-color="#624DE3"/>
</linearGradient>
<linearGradient id="paint4_linear_1_3612" x1="4" y1="30.5" x2="166" y2="30.5" gradientUnits="userSpaceOnUse">
<stop stop-color="#D501F8"/>
<stop offset="0.213542" stop-color="#624DE3"/>
<stop offset="0.380208" stop-color="#1510FF"/>
<stop offset="0.510417" stop-color="#624DE3"/>
<stop offset="0.630208" stop-color="#D501F8"/>
<stop offset="0.848958" stop-color="#624DE3"/>
<stop offset="1" stop-color="#D501F8"/>
</linearGradient>
</defs>
</svg>
