<svg width="30" height="30" viewBox="0 0 30 30" fill="none" xmlns="http://www.w3.org/2000/svg">
<g opacity="0.9">
<path fill-rule="evenodd" clip-rule="evenodd" d="M15 4.6875C11.3756 4.6875 8.4375 7.62563 8.4375 11.25C8.4375 14.8744 11.3756 17.8125 15 17.8125C18.6244 17.8125 21.5625 14.8744 21.5625 11.25C21.5625 7.62563 18.6244 4.6875 15 4.6875ZM6.5625 11.25C6.5625 6.5901 10.3401 2.8125 15 2.8125C19.6599 2.8125 23.4375 6.5901 23.4375 11.25C23.4375 15.9099 19.6599 19.6875 15 19.6875C10.3401 19.6875 6.5625 15.9099 6.5625 11.25Z" fill="white"/>
<path fill-rule="evenodd" clip-rule="evenodd" d="M15.0002 19.6865C12.8606 19.6865 10.7588 20.2497 8.90592 21.3196C7.05307 22.3894 5.51451 23.9282 4.44491 25.7812C4.18607 26.2296 3.61272 26.3833 3.16429 26.1245C2.71587 25.8656 2.56218 25.2923 2.82103 24.8438C4.05518 22.7058 5.83044 20.9303 7.96835 19.6958C10.1062 18.4614 12.5315 17.8115 15.0002 17.8115C17.4689 17.8115 19.8941 18.4614 22.032 19.6958C24.1699 20.9303 25.9451 22.7058 27.1793 24.8438C27.4381 25.2923 27.2844 25.8656 26.836 26.1245C26.3876 26.3833 25.8142 26.2296 25.5554 25.7812C24.4858 23.9282 22.9472 22.3894 21.0944 21.3196C19.2415 20.2497 17.1397 19.6865 15.0002 19.6865Z" fill="white"/>
</g>
</svg>
