<svg width="30" height="30" viewBox="0 0 30 30" fill="none" xmlns="http://www.w3.org/2000/svg">
<g opacity="0.9">
<path fill-rule="evenodd" clip-rule="evenodd" d="M15 10.3125C12.4112 10.3125 10.3125 12.4112 10.3125 15C10.3125 17.5888 12.4112 19.6875 15 19.6875C17.5888 19.6875 19.6875 17.5888 19.6875 15C19.6875 12.4112 17.5888 10.3125 15 10.3125ZM8.4375 15C8.4375 11.3756 11.3756 8.4375 15 8.4375C18.6244 8.4375 21.5625 11.3756 21.5625 15C21.5625 18.6244 18.6244 21.5625 15 21.5625C11.3756 21.5625 8.4375 18.6244 8.4375 15Z" fill="white"/>
<path fill-rule="evenodd" clip-rule="evenodd" d="M10.9856 2.49455C11.243 2.41144 11.5239 2.44361 11.7559 2.58282L14.4963 4.22707C14.8322 4.21206 15.1686 4.21207 15.5045 4.2271L18.2336 2.59398C18.4637 2.45629 18.7417 2.42371 18.9974 2.50449C20.7883 3.0703 22.4348 4.01856 23.823 5.28364C24.022 5.46499 24.1334 5.72315 24.1289 5.99235L24.0753 9.17778C24.2603 9.46196 24.4301 9.75578 24.584 10.058L27.3619 11.6025C27.5958 11.7326 27.763 11.9564 27.8213 12.2176C28.2301 14.0482 28.2344 15.9459 27.834 17.7783C27.7764 18.0417 27.6082 18.2676 27.3723 18.3982L24.5836 19.9428C24.4298 20.2447 24.2602 20.5383 24.0753 20.8222L24.1289 24.0077C24.1334 24.2769 24.022 24.535 23.823 24.7164C22.4377 25.9787 20.7982 26.9297 19.0147 27.5055C18.7572 27.5886 18.4764 27.5564 18.2443 27.4172L15.5039 25.7729C15.168 25.7879 14.8316 25.7879 14.4957 25.7729L11.7667 27.406C11.5366 27.5437 11.2585 27.5763 11.0029 27.4955C9.21196 26.9297 7.56542 25.9814 6.17724 24.7164C5.97823 24.535 5.86681 24.2768 5.87135 24.0076L5.92504 20.8294C5.74107 20.5423 5.57145 20.2462 5.41678 19.9423L2.63832 18.3975C2.4044 18.2674 2.23722 18.0436 2.1789 17.7824C1.77019 15.9519 1.76588 14.0542 2.16627 12.2218C2.22383 11.9583 2.39204 11.7324 2.62794 11.6018L5.41667 10.0572C5.5704 9.75528 5.74008 9.46172 5.92498 9.17778L5.87135 5.99235C5.86682 5.72313 5.97825 5.46497 6.17727 5.28362C7.56252 4.0213 9.20205 3.07029 10.9856 2.49455ZM7.75339 6.39454L7.80468 9.44125C7.808 9.63864 7.74893 9.83203 7.63589 9.99387C7.38443 10.3539 7.16428 10.7348 6.97786 11.1324C6.89405 11.3111 6.75595 11.4588 6.58325 11.5545L3.91669 13.0314C3.68345 14.3336 3.68669 15.6672 3.92626 16.9683L6.58459 18.4463C6.75598 18.5415 6.89318 18.6882 6.97687 18.8655C7.16739 19.2693 7.3896 19.6572 7.64142 20.0259C7.75091 20.1861 7.80796 20.3764 7.80468 20.5705L7.75342 23.6054C8.76674 24.4614 9.92552 25.1286 11.1746 25.5753L13.7804 24.0159C13.9455 23.9171 14.1369 23.8715 14.3287 23.8852C14.7758 23.9172 15.2245 23.9172 15.6715 23.8852C15.8637 23.8715 16.0555 23.9173 16.2207 24.0164L18.835 25.585C20.08 25.1312 21.235 24.4611 22.2469 23.6055L22.1956 20.5588C22.1922 20.3614 22.2513 20.168 22.3644 20.0061C22.6158 19.6461 22.836 19.2652 23.0224 18.8676C23.1062 18.6889 23.2443 18.5412 23.417 18.4455L26.0836 16.9687C26.3168 15.6664 26.3136 14.3328 26.074 13.0317L23.4157 11.5538C23.2436 11.4581 23.106 11.3106 23.0224 11.1324C22.836 10.7348 22.6158 10.3539 22.3644 9.99387C22.2513 9.83203 22.1922 9.63864 22.1956 9.44125L22.2469 6.39466C21.2335 5.53863 20.0747 4.87139 18.8257 4.42473L16.2198 5.98415C16.0548 6.08291 15.8634 6.12852 15.6715 6.1148C15.2245 6.08283 14.7758 6.08283 14.3287 6.1148C14.1365 6.12855 13.9447 6.08273 13.7795 5.98359L11.1652 4.41503C9.92027 4.86877 8.7652 5.53892 7.75339 6.39454Z" fill="white"/>
</g>
</svg>
