<svg xmlns="http://www.w3.org/2000/svg" xmlns:xlink="http://www.w3.org/1999/xlink" viewBox="0,0,256,256" width="150px" height="150px" fill-rule="nonzero"><g fill="#ffffff" fill-rule="nonzero" stroke="none" stroke-width="1" stroke-linecap="butt" stroke-linejoin="miter" stroke-miterlimit="10" stroke-dasharray="" stroke-dashoffset="0" font-family="none" font-weight="none" font-size="none" text-anchor="none" style="mix-blend-mode: normal"><g transform="scale(5.12,5.12)"><path d="M22.78125,0c-1.17578,-0.00391 -2.375,0.16406 -3.5625,0.53125c-6.31641,1.96094 -9.92969,8.73828 -7.96875,15.0625v0.0625c0.25781,0.71094 0.94922,2.96094 1.375,4.34375h-3.625c-1.69922,0 -3,1.30078 -3,3v24c0,1.69922 1.30078,3 3,3h32c1.69922,0 3,-1.30078 3,-3v-24c0,-1.69922 -1.30078,-3 -3,-3h-26.25c-0.30859,-0.99219 -1.23828,-3.92578 -1.625,-5h0.03125c-1.63672,-5.27734 1.34375,-10.89062 6.625,-12.53125c5.26953,-1.63672 10.91406,1.32813 12.5625,6.59375c0,0.00391 0,0.02734 0,0.03125c0.22656,0.79297 1.3125,4.3125 1.3125,4.3125c0.08984,0.35938 0.37109,0.64453 0.73047,0.73047c0.36328,0.08984 0.74219,-0.02734 0.98828,-0.30469c0.24609,-0.28125 0.32031,-0.67187 0.1875,-1.01953c0,0 -1.12891,-3.64062 -1.3125,-4.28125v-0.03125c-1.46875,-4.73828 -5.64844,-7.95703 -10.3125,-8.4375c-0.38672,-0.03906 -0.76562,-0.0625 -1.15625,-0.0625zM25,30c1.69922,0 3,1.30078 3,3c0,0.89844 -0.39844,1.6875 -1,2.1875v2.8125c0,1.10156 -0.89844,2 -2,2c-1.10156,0 -2,-0.89844 -2,-2v-2.8125c-0.60156,-0.5 -1,-1.28906 -1,-2.1875c0,-1.69922 1.30078,-3 3,-3z"></path></g></g></svg>